<svg xmlns="http://www.w3.org/2000/svg"><path d="M36.922 68.884v58.4518l-7.394 2.465c-1.1685.389-1.8002 1.6525-1.411 2.821s1.6537 1.799 2.82 1.4l8.9195-2.9732a2.229 2.229 0 0 0 1.5244-2.1149V68.884zm0 0" fill="#2dade3"/><path d="M59.222 68.884v58.4518l7.394 2.465c1.1684.389 1.8 1.6525 1.411 2.821s-1.6537 1.799-2.82 1.4l-8.9195-2.9732a2.229 2.229 0 0 1-1.5244-2.1149V68.884zm0 0" fill="#1990c2"/><path d="M96.9817 68.884v58.4518l-7.394 2.465c-1.1685.389-1.8002 1.6525-1.411 2.821s1.6526 1.799 2.82 1.4l8.9195-2.9732c.9098-.3033 1.5244-1.156 1.5244-2.115V68.884zm0 0" fill="#696969"/><path d="M119.2805 68.884v58.4518l7.3952 2.465c1.1684.389 1.8 1.6525 1.41 2.821s-1.6525 1.799-2.8198 1.4l-8.9195-2.9732a2.229 2.229 0 0 1-1.5244-2.1149v-60.0597zm0 0" fill="#4f4f4f"/><path d="M61.4512 57.726H48.072v-4.4597h13.3793c11.0664 0 20.0695-9.003 20.0695-20.0695a2.23 2.23 0 0 1 2.2304-2.2305c1.2315 0 2.2294.998 2.2294 2.2305 0 13.5246-11.0035 24.5292-24.5293 24.5292zm0 0" fill="#a8e5ff"/><path d="M130.4305 47.328c-1.2314 0-2.2293.999-2.2293 2.2304v10.4062c0 3.6884-3.0018 6.6902-6.6902 6.6902h-13.3793v4.4597H121.51c6.1478 0 11.15-5.0022 11.15-11.15V49.5585c0-1.2313-.999-2.2304-2.2305-2.2304zm0 0" fill="#2dade3"/><path d="M55.505 49.5494h-8.9195v35.6792h14.866V55.4958c0-3.2845-2.662-5.9464-5.9464-5.9464zm0 0" fill="#a8e5ff"/><path d="M46.5854 49.5494H40.64c-3.2844 0-5.9463 2.662-5.9463 5.9464v26.7597h17.84V55.4958c0-3.2845-2.662-5.9464-5.9463-5.9464zm0 0" fill="#dbf4ff"/><path d="M61.4512 73.336h-8.9195l4.4598 22.2988H65.91V85.13c0-4.5227-1.6857-8.6494-4.4598-11.793zm0 0" fill="#ffa754"/><path d="M52.5317 73.336h-17.84c-2.774 3.1437-4.4598 7.2704-4.4598 11.793v10.5057h26.7586V85.13c0-4.5227-1.6857-8.6494-4.4598-11.793zm0 0" fill="#ffcb63"/><path d="M30.1253 86.7152h4.5674c4.905 0 8.9195-4.0146 8.9195-8.9195V73.336L17.2988 59.9864.5 73.336c0 9.8523 7.9868 17.839 17.839 17.839 4.5215 0 8.6437-1.687 11.7862-4.4598zm0 0" fill="#ff6337"/><path d="M43.6122 68.876c0-4.906-4.0146-8.9206-8.9195-8.9206h-4.5674c-3.1425-2.773-7.2647-4.4598-11.7862-4.4598C8.4868 55.4957.5 63.4825.5 73.336h43.1122zm26.7586 8.9196L65.9 73.336l4.4598-4.4598h13.3804v8.9195zm0 0" fill="#ff8646"/><path d="M31.517 68.876h38.8538v8.9195H31.517zm0 0" fill="#85453d"/><path d="M36.1792 73.336c0 2.4627-1.997 4.4597-4.4597 4.4597s-4.4598-1.997-4.4598-4.4597 1.9958-4.4598 4.4598-4.4598 4.4597 1.9958 4.4597 4.4598zm0 0" fill="#40211d"/><path d="M38.627 27.2506v9.2937c-1.0162 2.4-3.3932 4.0856-6.165 4.0856-3.6942 0-6.69-2.995-6.69-6.6902s2.995-6.69 6.69-6.69zm18.89 0v9.2937c1.015 2.4 3.3932 4.0856 6.1638 4.0856 3.6953 0 6.6902-2.995 6.6902-6.6902s-2.995-6.69-6.6902-6.69zm0 0" fill="#a45e43"/><path d="M48.072 13.87v26.7597c7.3894 0 13.3793-5.9898 13.3793-13.3793zm0 0" fill="#ffb4a9"/><path d="M48.072 13.87L34.6927 27.2505c0 7.3895 5.9898 13.3793 13.3793 13.3793 2.4627 0 4.4597-5.9898 4.4597-13.3793S50.536 13.87 48.072 13.87zm0 0" fill="#ffd9d4"/><path d="M48.072 13.87c-7.3895 0-13.3793 5.99-13.3793 13.3804 7.3895 0 13.3793-5.991 13.3793-13.3804zm0 0" fill="#a45e43"/><path d="M61.4513 27.2505c0-7.3894-5.99-13.3804-13.3793-13.3804 0 7.3895 5.99 13.3804 13.3793 13.3804zm0 0" fill="#85453d"/><path d="M108.1316 64.4244V91.184c7.3895 0 13.3793-5.99 13.3793-13.3804zm0 0" fill="#4f4f4f"/><path d="M112.5915 77.8037l-4.4598-13.3793-13.3804 13.3793c0 7.3894 5.99 13.3804 13.3804 13.3804 2.4628 0 4.4598-5.99 4.4598-13.3804zm0 0" fill="#696969"/><path d="M115.5646 49.5585h-8.9195l5.9464 28.2452h8.9195V55.505c0-3.2845-2.662-5.9464-5.9464-5.9464zm0 0" fill="#2dade3"/><path d="M106.645 49.5585h-5.9463c-3.2845 0-5.9475 2.662-5.9475 5.9464v22.2988h17.8402V55.505c0-3.2845-2.663-5.9464-5.9464-5.9464zm0 0" fill="#49c9ff"/><path d="M118.397 9.6278c.8732-1.68.6054-3.7994-.8046-5.2082s-3.5293-1.6777-5.2093-.8057C111.812 1.8092 110.1252.5 108.1316.5S104.45 1.8092 103.88 3.614c-1.68-.873-3.7983-.6054-5.2082.8046s-1.6777 3.5293-.8057 5.2093c-1.8047.571-3.114 2.258-3.114 4.2515v13.3804h26.7597V13.8793c0-1.9936-1.3092-3.6804-3.114-4.2515zm0 0" fill="#40211d"/><path d="M108.1316 13.8792V40.639c7.3895 0 13.3793-5.99 13.3793-13.3793s-5.9898-13.3804-13.3793-13.3804zm0 0" fill="#60312c"/><path d="M112.5915 27.2596c0-7.3894-1.997-13.3804-4.4598-13.3804-7.3894 0-13.3804 5.99-13.3804 13.3804s5.99 13.3793 13.3804 13.3793c2.4628 0 4.4598-5.99 4.4598-13.3793zm0 0" fill="#85453d"/><path d="M18.34 80.025c-1.2314 0-2.2293-.998-2.2293-2.2293v-8.9196c0-1.2325.998-2.2304 2.2293-2.2304a2.23 2.23 0 0 1 2.2305 2.2304v8.9196c0 1.2314-.998 2.2293-2.2305 2.2293zm0 0" fill="#353535"/><path d="M18.34 62.186c-1.2314 0-2.2293-.998-2.2293-2.2305V51.036c0-1.2314.998-2.2293 2.2293-2.2293s2.2305.998 2.2305 2.2293v8.9195c0 1.2314-.998 2.2305-2.2305 2.2305zm0 0" fill="#ffd9d4"/><path d="M149.574 10.5846c-.5813-.42-1.3297-.5333-2.0096-.3067l-13.3792 4.4597a2.229 2.229 0 0 0-1.5244 2.1149v20.692l-2.9354.9785c-1.1684.3903-1.8002 1.6525-1.41 2.82.3113.935 1.18 1.5255 2.115 1.5255.2334 0 .4715-.0378.705-.1156l4.4598-1.4866a2.23 2.23 0 0 0 1.5255-2.1149V27.38l8.9195-2.9732v8.678l-2.9354.9785c-1.1684.3902-1.8 1.6525-1.41 2.821s1.6514 1.8 2.82 1.41l4.4597-1.4865a2.229 2.229 0 0 0 1.5244-2.1149v-22.3c0-.7164-.3445-1.3893-.926-1.808zm-3.534 9.121l-8.9195 2.9732v-4.2183l8.9195-2.9732zm0 0" fill="#ffa754"/></svg>